<?xml version="1.0" encoding="UTF-8"?>
<svg width="32px" height="31px" viewBox="0 0 32 31" version="1.1" xmlns="http://www.w3.org/2000/svg" xmlns:xlink="http://www.w3.org/1999/xlink">
    <title>icon_upcycled</title>
    <g id="Page-1" stroke="none" stroke-width="1" fill="none" fill-rule="evenodd">
        <g id="PDP---Default---Desktop" transform="translate(-1098.000000, -558.000000)">
            <g id="Buystack" transform="translate(830.000000, 154.000000)">
                <g id="values" transform="translate(0.000000, 403.000000)">
                    <g id="icon_upcycled" transform="translate(268.000000, 1.000000)">
                        <circle id="Oval" fill="#FAF7F1" cx="12.9553876" cy="12.9553876" r="12.9553876"/>
                        <path d="M5.52444577,18.6833389 C5.21455585,18.6833389 4.96375,18.4425865 4.96375,18.145072 C4.95395791,15.2056404 6.10587831,12.3714385 8.18633153,10.2151736 C10.267906,8.05793982 13.1224253,6.73963626 16.1764739,6.5240636 L14.4945747,4.90928708 C14.2701028,4.69692782 14.2679135,4.35000923 14.4891001,4.13449039 C14.7102867,3.91897693 15.0716259,3.91582273 15.2961034,4.12923429 L17.8977771,6.65862023 C18.1145851,6.86887759 18.1145851,7.20740204 17.8977771,7.41764594 L15.2961034,9.94178386 C15.07601,10.1541431 14.7190438,10.1562477 14.497846,9.94493806 C14.2755634,9.7336284 14.2744673,9.38985863 14.4945607,9.1774886 L16.1096604,7.61107464 C13.3667071,7.84025449 10.8142009,9.05134764 8.95822513,11.0015671 C7.10112813,12.9527554 6.07629118,15.5022184 6.084981,18.1450693 C6.084981,18.2880443 6.02585103,18.4247217 5.92073233,18.5256452 C5.81561363,18.6265687 5.6732661,18.6833389 5.52433673,18.6833389 L5.52444577,18.6833389 Z M22.4222064,27.2954723 C20.0504763,28.6242988 17.2408357,29.0353401 14.5646538,28.4466195 C11.8884719,27.8578989 9.54642732,26.312504 8.01337623,24.1246702 L10.2110017,24.6955206 C10.3566346,24.7386243 10.5143042,24.7228534 10.6468099,24.6524168 C10.7803975,24.5809307 10.8778523,24.4621342 10.9172705,24.3212531 C10.9566886,24.18038 10.9347902,24.030055 10.8570473,23.9049368 C10.7782082,23.7798346 10.6511884,23.6894233 10.5033719,23.6568317 L6.94251102,22.7474703 C6.79906745,22.7096254 6.64576795,22.7295974 6.5165695,22.8010863 C6.3873604,22.8725725 6.29209763,22.9903166 6.25377275,23.1291012 L5.30551772,26.5742269 C5.22777473,26.8612266 5.40516184,27.1545238 5.70410007,27.2312795 C5.75228088,27.2365356 5.80155492,27.2365356 5.84973292,27.2312795 C6.11034039,27.2396898 6.34247303,27.0746381 6.41036598,26.8328334 L7.02683865,24.5988439 C8.69777744,27.0567491 11.2896121,28.8039908 14.2646114,29.4778909 C17.240732,30.1507145 20.3724283,29.6997128 23.0102068,28.2163467 C23.1580289,28.1522186 23.2708143,28.030268 23.3179102,27.8809846 C23.364995,27.7327535 23.3430939,27.5719166 23.256591,27.4394511 C23.1711814,27.3069883 23.0299299,27.2176293 22.8700625,27.1934507 C22.7090992,27.1682198 22.5459606,27.2123732 22.4222008,27.3111948 L22.4222064,27.2954723 Z M30.7529333,23.0755229 C30.7135152,22.937804 30.6193457,22.8200599 30.4890406,22.7496341 C30.3598315,22.6791976 30.2065376,22.6613274 30.0630996,22.6991724 L27.7537679,23.2963167 C29.1006048,20.6460109 29.3590286,17.6066516 28.4753587,14.7818693 C27.5917169,11.9581634 25.6326688,9.55699069 22.988443,8.05793982 C22.8592339,7.97909297 22.7026603,7.95491438 22.5537281,7.98960517 C22.405906,8.02429864 22.2788862,8.11575958 22.2022392,8.24296629 C22.1255895,8.37017301 22.1069765,8.52156907 22.1485839,8.66243141 C22.1912873,8.80330451 22.2920274,8.92104863 22.4278043,8.98936983 C24.8028422,10.3360665 26.5700417,12.4848227 27.3849218,15.0165232 C28.1984845,17.5480083 28.0003007,20.279349 26.8286617,22.6772921 L26.2680287,20.5568484 C26.2373676,20.4107192 26.1464862,20.2835205 26.0150878,20.2057152 C25.8836895,20.1268684 25.7249042,20.1037394 25.5749068,20.141587 C25.4259886,20.179432 25.2989688,20.2750995 25.2256044,20.4054604 C25.1511467,20.5358213 25.1369094,20.6903608 25.1861863,20.8312231 L26.138814,24.2814623 C26.1771388,24.4202308 26.2713084,24.5390272 26.4005147,24.6105268 C26.530817,24.6821728 26.6841109,24.7009382 26.8286421,24.6630905 L30.3830557,23.7369085 L30.3830557,23.7379608 C30.6732394,23.6496514 30.8374768,23.3563353 30.7531576,23.0756602 L30.7529333,23.0755229 Z" id="Fill-1" stroke="#747474" stroke-width="0.55" fill="#747474"/>
                    </g>
                </g>
            </g>
        </g>
    </g>
</svg>