<?xml version="1.0" encoding="UTF-8"?>
<svg width="30px" height="30px" viewBox="0 0 30 30" version="1.1" xmlns="http://www.w3.org/2000/svg" xmlns:xlink="http://www.w3.org/1999/xlink">
    <title>icon_upcycled</title>
    <defs>
        <polygon id="path-1" points="0 0.126515464 25.8747443 0.126515464 25.8747443 26 0 26"/>
    </defs>
    <g id="Collection" stroke="none" stroke-width="1" fill="none" fill-rule="evenodd">
        <g id="Collection---Filters---Mobile" transform="translate(-30.000000, -221.000000)">
            <g id="filters" transform="translate(15.000000, 81.000000)">
                <g id="Certified-B-Corporation" transform="translate(0.000000, 130.000000)">
                    <g id="icon_upcycled" transform="translate(15.000000, 10.000000)">
                        <circle id="Oval" fill="#FAF7F1" cx="12.9553876" cy="12.9553876" r="12.9553876"/>
                        <g id="Group" transform="translate(4.000000, 4.000000)">
                            <path d="M9.36140139,18.499848 L14.2074594,18.499848 C15.8759301,18.499848 16.9352138,17.4806718 16.9352138,15.8900591 C16.9352138,13.9933764 15.4084206,13.4631722 13.7789969,13.4631722 L9.36140139,13.4631722 L9.36140139,18.499848 Z M9.36140139,11.8318559 L13.230755,11.8318559 C15.428208,11.8318559 16.3249714,11.0368139 16.3249714,9.50699232 C16.3249714,7.48793446 14.9005449,7.20300916 13.230755,7.20300916 L9.36140139,7.20300916 L9.36140139,11.8318559 Z M7.42857143,5.57142857 L12.7001897,5.57142857 C13.9834664,5.57142857 15.6727798,5.57142857 16.5479091,6.10163279 C17.5048261,6.67254063 18.2572737,7.71259727 18.2572737,9.14039548 C18.2572737,10.6900402 17.4441449,11.852472 16.1001869,12.4024994 L16.1001869,12.4434673 C17.8923947,12.8103285 18.8685714,14.1564552 18.8685714,15.9513788 C18.8685714,18.0917546 17.3415144,20.1314286 14.4515036,20.1314286 L7.42857143,20.1314286 L7.42857143,5.57142857 Z" id="Fill-1" fill="#7F7F7F"/>
                            <g id="Group-5">
                                <mask id="mask-2" fill="white">
                                    <use xlink:href="#path-1"/>
                                </mask>
                                <g id="Clip-4"/>
                                <path d="M12.9361258,0.126408247 C5.79229072,0.126408247 -8.04123711e-05,5.91851134 -8.04123711e-05,13.0634186 C-8.04123711e-05,20.2075216 5.79229072,26.0001608 12.9361258,26.0001608 C20.0823732,26.0001608 25.8747443,20.2075216 25.8747443,13.0634186 C25.8747443,5.91851134 20.0823732,0.126408247 12.9361258,0.126408247 M24.1686619,13.0695835 C24.1686619,19.2725938 19.1407443,24.3013155 12.9361258,24.3013155 C6.73365155,24.3013155 1.70573402,19.2725938 1.70573402,13.0695835 C1.70573402,6.86710928 6.73365155,1.83945979 12.9361258,1.83945979 C19.1407443,1.83945979 24.1686619,6.86710928 24.1686619,13.0695835" id="Fill-3" fill="#7F7F7F" mask="url(#mask-2)"/>
                            </g>
                        </g>
                    </g>
                </g>
            </g>
        </g>
    </g>
</svg>