<svg xmlns="http://www.w3.org/2000/svg" width="31" height="31" viewBox="0 0 31 31">
    <g fill="none" fill-rule="evenodd">
        <g>
            <g>
                <g>
                    <g transform="translate(-370 -555) translate(260 412) translate(95 133) translate(15 10)">
                        <circle cx="12.955" cy="12.955" r="12.955" fill="#FAF7F1"/>
                        <path fill="#747474" d="M29.15 4.318h-3.24c-5.397 0-9.716 4.319-9.716 9.717v.432c-1.835-2.16-4.534-3.67-7.557-3.67H5.398c-.648 0-1.08.431-1.08 1.079v3.239c0 5.398 4.319 9.716 9.717 9.716h2.16v4.319c0 .647.431 1.08 1.079 1.08.648 0 1.08-.433 1.08-1.08v-6.478h2.159c5.398 0 9.716-4.319 9.716-9.717V5.398c0-.648-.432-1.08-1.08-1.08zM14.035 22.672c-4.21 0-7.557-3.347-7.557-7.557v-2.16h2.159c4.21 0 7.557 3.347 7.557 7.558v2.159h-2.159zm14.035-9.717c0 4.211-3.347 7.558-7.557 7.558h-2.16v-6.478c0-4.21 3.347-7.557 7.558-7.557h2.159v6.477z"/>
                    </g>
                </g>
            </g>
        </g>
    </g>
</svg>