<svg xmlns="http://www.w3.org/2000/svg" width="30" height="30" viewBox="0 0 30 30">
    <g fill="none" fill-rule="evenodd">
        <g>
            <g>
                <g>
                    <g>
                        <g transform="translate(-750 -683) translate(260 412) translate(95 133) translate(380 130) translate(15 8)">
                            <circle cx="13.191" cy="13.191" r="13.191" fill="#FAF7F1"/>
                            <g fill="#747474" fill-rule="nonzero">
                                <path d="M12.302 4.823l-.685-.03-.363-.566c-.196-.304-.548-.47-.911-.435-.366.035-.674.267-.804.6l-.242.626-.666.16c-.357.086-.63.358-.707.708-.077.35.053.705.342.93l.536.416-.047.665c-.024.358.157.692.476.871.152.085.32.128.485.128.184 0 .368-.053.53-.155l.573-.368.638.25c.341.134.727.07 1.002-.168.275-.237.385-.6.286-.945l-.184-.644.44-.51c.237-.275.292-.649.143-.975-.151-.328-.473-.542-.842-.558zm-.776 1.57c-.115.134-.157.316-.11.487l.184.651-.643-.253c-.168-.067-.358-.049-.51.05l-.58.372.05-.674c.013-.176-.064-.344-.207-.454l-.545-.419.674-.163c.176-.043.32-.165.383-.331l.245-.633.368.572c.097.15.262.243.443.25l.694.03-.446.515zm7.3-.606l-.44.508.184.64c.099.348-.011.708-.286.946-.275.238-.658.305-1 .171l-.637-.25-.573.368c-.165.107-.35.157-.533.157-.168 0-.336-.042-.49-.13-.317-.182-.498-.516-.47-.871l.01-.16c.02-.294.28-.519.586-.497.27.016.48.219.51.467l.59-.38c.152-.095.342-.114.51-.05l.644.254-.187-.652c-.05-.17-.009-.353.11-.486l.448-.513-.693-.03c-.182-.007-.347-.1-.443-.25l-.369-.572-.245.636c-.063.165-.206.288-.382.33l-.685.167c.165.19.176.472.013.675-.187.233-.533.273-.773.091l-.129-.099c-.292-.227-.421-.582-.344-.93.077-.35.347-.619.702-.71l.671-.16.242-.625c.127-.334.435-.564.8-.601.367-.037.719.128.914.433l.366.566.685.03c.366.013.688.226.837.555.151.323.096.697-.143.972zm-11.515.16c-.149-.328-.47-.542-.84-.558l-.685-.03-.363-.565c-.195-.305-.545-.47-.91-.436-.366.035-.675.267-.804.601l-.242.625-.666.16c-.358.086-.63.358-.707.708-.077.35.052.705.341.93l.537.416-.047.665c-.025.358.157.692.476.871.151.086.32.128.484.128.185 0 .369-.053.531-.154l.573-.37.635.252c.341.134.727.07 1.002-.168.275-.238.385-.601.286-.946l-.185-.644.44-.51c.237-.272.292-.646.144-.975zM5.698 6.965c-.115.134-.156.315-.11.486l.185.652-.644-.254c-.168-.067-.358-.048-.51.05l-.58.372.05-.673c.014-.176-.064-.344-.207-.454l-.544-.42.674-.162c.176-.043.319-.166.382-.331l.245-.633.369.571c.096.15.261.243.443.251l.693.03-.446.515zm15.015 8.809c.08-.286-.093-.577-.388-.654-.294-.078-.597.09-.674.376-.137.497-.319.954-.553 1.392l-.693-6.686 1.59-.155c.085 1.646.069 2.912-.052 3.945-.033.294.181.559.484.59.022.003.041.003.063.003.276 0 .515-.2.545-.472.14-1.208.152-2.695.028-4.675v-.032c0-.005-.003-.01-.003-.013-.121-1.982-.363-4.394-.644-7.113-.044-.427-.256-.81-.6-1.082-.34-.272-.77-.398-1.21-.355l-3.021.294c-.303.03-.523.291-.493.585.03.294.297.507.603.478l3.02-.294c.147-.013.292.027.405.12.116.091.185.22.201.361.259 2.495.482 4.725.608 6.595l-7.605.742-2.707.265h-.003-.003l-2.705.261h-.011l-2.704.265-2.182.213c-.119-.849-.234-1.781-.353-2.841-.033-.294-.302-.503-.608-.473-.302.032-.52.296-.487.59.143 1.266.281 2.359.421 3.339v.024c.003.021.009.043.014.061.704 4.808 1.662 7.02 3.78 8.724.003.002.006.002.009.005.005.003.008.008.014.01.765.615 1.697 1.181 3.02 1.833.93.46 1.99.927 2.904 1.325l.855.371c.215.094.446.139.674.139.339 0 .677-.102.958-.296.267-.182.52-.361.768-.535 1.111-.774 1.904-1.349 2.57-1.859 1.163-.897 1.961-1.632 2.586-2.382.765-.919 1.268-1.87 1.58-2.989zm-7.731-5.043l1.617-.157 1.027 9.92c-.43.325-.922.68-1.519 1.105l-1.125-10.868zm-10.82 1.055l1.588-.155.694 6.688c-1.134-1.36-1.764-3.226-2.281-6.533zm9.865 10.935l-.567-.246-.242-2.34c-.03-.293-.303-.507-.603-.477-.302.029-.522.29-.492.585l.179 1.725c-.575-.254-1.161-.524-1.717-.793l-.597-5.77c-.03-.293-.3-.507-.603-.478-.303.03-.523.291-.492.585l.525 5.072c-.704-.382-1.266-.737-1.747-1.105l-.823-7.952 1.615-.157.259 2.51c.027.275.267.481.548.481.019 0 .035 0 .055-.003.302-.029.522-.29.492-.585l-.259-2.51 1.618-.158.784 7.57c.028.275.267.48.548.48.02 0 .036 0 .055-.002.303-.03.523-.291.493-.585l-.785-7.57 1.616-.157 1.188 11.482-.503.35c-.157.107-.366.126-.545.048zm4.622-3.04l-.954-9.217 1.615-.158.822 7.955c-.396.454-.872.91-1.483 1.42zM.157 4.255c-.09-.881.572-1.67 1.477-1.757l10.852-1.058c.309-.027.573.184.603.478.03.294-.19.555-.493.585L1.745 3.56c-.303.029-.523.293-.493.587l.069.657c.055.524.107 1.029.16 1.512.032.294-.188.556-.49.588-.02.002-.039.002-.058.002-.278 0-.517-.203-.548-.478l-.16-1.517-.068-.657zM13.55 1.922c-.008-.034-.01-.072-.01-.107 0-.034.002-.069.01-.104.008-.032.017-.067.03-.099.014-.032.03-.064.053-.093.019-.027.041-.056.069-.08.024-.024.052-.046.082-.067.03-.019.06-.035.096-.048.033-.013.066-.024.102-.032.179-.035.369.024.495.147.028.024.05.053.07.08.018.03.038.061.051.093.014.032.025.067.03.1.009.034.012.069.012.103 0 .035-.003.073-.011.107-.006.032-.017.067-.03.1-.014.031-.034.063-.053.093-.019.026-.041.056-.069.08-.101.099-.242.155-.388.155-.035 0-.071-.003-.107-.008-.036-.008-.069-.02-.102-.032-.035-.014-.066-.03-.096-.049-.03-.018-.058-.042-.082-.066-.028-.024-.05-.054-.07-.08-.021-.03-.038-.062-.052-.094-.013-.032-.022-.067-.03-.099z" transform="rotate(6 -26.162 70.243)"/>
                            </g>
                        </g>
                    </g>
                </g>
            </g>
        </g>
    </g>
</svg>