<?xml version="1.0" encoding="UTF-8"?>
<svg width="31px" height="31px" viewBox="0 0 31 31" version="1.1" xmlns="http://www.w3.org/2000/svg" xmlns:xlink="http://www.w3.org/1999/xlink">
    <title>icon_positivity</title>
    <g id="Collection" stroke="none" stroke-width="1" fill="none" fill-rule="evenodd">
        <g id="Collection---Filters---Mobile" transform="translate(-30.000000, -350.000000)">
            <g id="filters" transform="translate(15.000000, 81.000000)">
                <g id="Social-Good" transform="translate(0.000000, 260.000000)">
                    <g id="icon_positivity" transform="translate(15.000000, 9.000000)">
                        <circle id="Oval" fill="#FAF7F1" cx="12.9553876" cy="12.9553876" r="12.9553876"/>
                        <path d="M17.2738501,4.31846252 C10.1283906,4.31846252 4.31846252,10.1283906 4.31846252,17.2738501 C4.31846252,24.4193096 10.1283906,30.2292377 17.2738501,30.2292377 C24.4193096,30.2292377 30.2292377,24.4193096 30.2292377,17.2738501 C30.2292377,10.1283906 24.4193096,4.31846252 17.2738501,4.31846252 Z M17.2738501,6.00829569 C23.5051099,6.00829569 28.5394045,11.0425903 28.5394045,17.2738501 C28.5394045,23.5051099 23.5051099,28.5394045 17.2738501,28.5394045 C11.0425903,28.5394045 6.00829569,23.5051099 6.00829569,17.2738501 C6.00829569,11.0425903 11.0425903,6.00829569 17.2738501,6.00829569 Z M12.4859895,11.9227118 C11.5530607,11.9227118 10.7961563,12.6796162 10.7961563,13.6125449 C10.7961563,14.5454736 11.5530607,15.3023781 12.4859895,15.3023781 C13.4189182,15.3023781 14.1758226,14.5454736 14.1758226,13.6125449 C14.1758226,12.6796162 13.4189182,11.9227118 12.4859895,11.9227118 Z M22.0617107,11.9227118 C21.128782,11.9227118 20.3718776,12.6796162 20.3718776,13.6125449 C20.3718776,14.5454736 21.128782,15.3023781 22.0617107,15.3023781 C22.9946394,15.3023781 23.7515439,14.5454736 23.7515439,13.6125449 C23.7515439,12.6796162 22.9946394,11.9227118 22.0617107,11.9227118 Z M10.9899238,19.8085998 C10.2440315,19.8427035 10.0339007,20.6095244 10.3738388,21.1199667 C11.8843525,23.3796679 14.4147932,24.8781556 17.2739909,24.8781556 C20.1331886,24.8781556 22.6637138,23.3797524 24.174143,21.1199667 C24.420577,20.7514141 24.3138612,20.1958533 23.9453114,19.9494193 C23.5767616,19.7029853 23.0123827,19.809701 22.7659487,20.1782508 C21.5458891,22.0034115 19.54569,23.188407 17.2739909,23.188407 C15.0022919,23.188407 13.0020927,22.0035523 11.7820331,20.1782508 C11.5532016,19.9098152 11.261649,19.7931942 10.9899238,19.8085998 Z" id="Fill-1" stroke="#747474" stroke-width="0.25" fill="#747474"/>
                    </g>
                </g>
            </g>
        </g>
    </g>
</svg>